<?xml version="1.0" encoding="utf-8"?>
<!-- Generator: Adobe Illustrator 15.1.0, SVG Export Plug-In . SVG Version: 6.00 Build 0)  -->
<!DOCTYPE svg PUBLIC "-//W3C//DTD SVG 1.1//EN" "http://www.w3.org/Graphics/SVG/1.1/DTD/svg11.dtd">
<svg version="1.1" xmlns="http://www.w3.org/2000/svg" xmlns:xlink="http://www.w3.org/1999/xlink" x="0px" y="0px"
	 width="595.28px" height="841.89px" viewBox="0 0 595.28 841.89" enable-background="new 0 0 595.28 841.89" xml:space="preserve">
<g id="Couleurs">
	<g>
		<path fill="#412913" d="M255.667,305c0,0-5.9,7.041-6.648,16.25s-1.362,43.267-1.362,43.267s-6.324-3.35-11.49-2.183
			c0,0-3.333,14.917,8.25,18.167s0,0,0,0s-4.917,13.75,8.518,21.543c0,0,3.561,8.728,16.313,11.717c0,0,52.92,1.324,72.586-8.093
			c0,0,14.791-8.542,2.745-24.318c0,0,6.421-9.932,4.921-19.016l-7.666,4.12c0,0-12.844-70.203-19.589-70.953
			S255.667,305,255.667,305z"/>
		<path fill="#FBCC9A" d="M253.833,355.167c0,0-4.333,30.75,42.667,30.667C340.25,371.5,326.834,343,326.834,343
			s-3.953-4.466-3.519-8.233c0,0-18.481-1.934-20.648-19.101c0,0-11.99,30.226-44.579,22.28
			C258.088,337.946,260.01,345.816,253.833,355.167z"/>
		<path fill="#FBCC9A" d="M302.667,384.232c0,0,0.422,0.581,1.867,0.815c0,0,3.05,12.703-7.617,13.453s-10.996-10.976-10.996-10.976
			s1.061-1.07,1.07-1.766C286.991,385.758,301.456,387.304,302.667,384.232z"/>
		<path fill="#010202" d="M266.333,365.5l51-7.667c0,0-0.917,18-21,19.833S268.667,369,266.333,365.5z"/>
		<path fill="#E5655E" d="M277,375.229c0,0,8.96-5.562,14.855-4.396s0.87-0.161,0.87-0.161s7.482-5.733,19.254-0.078
			C311.979,370.595,298.107,383.054,277,375.229z"/>
		<path fill="#F4F3E9" d="M266.333,365.5l51-7.667l-0.178,2.954c0,0-31.957,9.787-48.682,7.75L266.333,365.5z"/>
		<circle fill="#2CA3B1" cx="268.475" cy="352.062" r="3.396"/>
		<circle fill="#2CA3B1" cx="316.392" cy="346.963" r="3.396"/>
		<circle fill="#FFFFFF" cx="267.475" cy="351.164" r="0.648"/>
		<circle fill="#FFFFFF" cx="316.999" cy="345.666" r="0.648"/>
		<polygon fill="#D8B50B" points="253.387,271.5 298.833,261.333 304.959,283.75 352.667,291.667 230.333,321.25 256.75,295.75 		
			"/>
		<polygon fill="#326E2E" points="254.5,288 305,275.167 307.976,284.25 255.667,298 		"/>
		<path fill="#D80F16" d="M238.995,410.667c0,0,31.13-20.55,40.505-21.108c0,0,5.735-1.248,6.421-2.034s0.269-0.296,0.269-0.296
			s-0.941,11.466,10.434,11.307c0,0,10.569-1.19,7.91-13.487c0,0,3.487,0.262,5.466-0.047s9.66-3.358,16.83,6.383L339,405
			c0,0-8.414,13.807-8.395,14.778c0,0-3.396-2.236-6.188-1.945L327.334,404c0,0-10.291-7.042-10-3.333s2.225,12.311,2.225,12.311
			s-22.538,7.19-44.548,5.856c0,0,0.24-9.683-1.51-11.258s-33.365,9.787-33.365,9.787S240.342,411.966,238.995,410.667z"/>
		<path fill="#15599F" d="M307.325,385.293l0.637-0.082l4.017-0.521l2.219,29.42l6.889-1.444c0,0,7.248,27.5,11.581,30.167
			c0,0-14.688,7.389-38.178,8.057S268,451.5,268,451.5s7.202-26.285,7-32.667s0.002-0.738,0.002-0.738l4.098,0.738l-0.378-29.07
			l5.028-1.014l0.03,30.083c0,0,24.095-1.501,26.157-3.667"/>
	</g>
	<path fill="#D8B50B" d="M277,451.583l-1.99,14.917c0,0,7.972,3.035,11.981,1.935c0,0,4.836-17.469,6.167-17.507
		S278,452.832,277,451.583z"/>
	<path fill="#D8B50B" d="M303.171,450.32c0,0,7.471,16.386,7.483,18.116c0,0,10.347,0.227,11.93-1.771l-3.005-19.279L303.171,450.32
		z"/>
	<path fill="#326E2E" d="M262.78,492.226l10.397-6.726v-19.833c0,0,7.176,4.332,15.583,2.666l-6.729,22.834l1.365,3.5
		L262.78,492.226z"/>
	<path fill="#326E2E" d="M334.741,492.226l-10.397-6.726v-19.833c0,0-7.176,4.332-15.582,2.666l6.729,22.834l-1.365,3.5
		L334.741,492.226z"/>
	<path fill="#FBCC9A" d="M322.584,418.833c0,0,1.44-0.821,3.01-0.738s7.271,1.404,9.172,7.571s-6.599,8.5-6.599,8.5l-5.075-14.389"
		/>
	<circle fill="#FBCC9A" cx="232.27" cy="415.166" r="8.017"/>
</g>
<g id="Tracés">
	<path fill="none" stroke="#000000" stroke-miterlimit="10" d="M326.834,343c0,0,4.834,13.667,0,21.167S309.833,384.5,296.5,385.833
		S260.167,382,254.833,365.5c-2.5-8.667-1-10.333-1-10.333"/>
	<path fill="none" stroke="#000000" stroke-miterlimit="10" d="M266.333,365.5c0,0,50.834-8,51-7.667s0.833,16.333-21,19.833
		S266.333,365.5,266.333,365.5z"/>
	<circle fill="none" stroke="#000000" stroke-miterlimit="10" cx="268" cy="351.833" r="3.166"/>
	<circle fill="none" stroke="#000000" stroke-miterlimit="10" cx="316.392" cy="346.963" r="3.166"/>
	<path fill="none" stroke="#000000" stroke-miterlimit="10" d="M249.5,360.167c0,0,10.667-10.5,8.5-22.833
		c0,0,25,12.5,44.667-21.667"/>
	<path fill="none" stroke="#000000" stroke-miterlimit="10" d="M302.667,312.667c0,0-0.833,22.5,28.667,22.833"/>
	<path fill="none" stroke="#000000" stroke-miterlimit="10" d="M332.667,345.667c0,0-9.37-1.799-9.352-10.899"/>
	<polyline fill="none" stroke="#000000" stroke-miterlimit="10" points="309.167,284.833 352.667,291.667 234.5,320.167 	"/>
	<polyline fill="none" stroke="#000000" stroke-miterlimit="10" points="255.667,286.5 253.387,271.5 298.833,261.333 302.667,275 	
		"/>
	<polyline fill="none" stroke="#000000" stroke-miterlimit="10" points="254.5,288 255.667,297.667 233.167,316.833 	"/>
	<polyline fill="none" stroke="#000000" stroke-miterlimit="10" points="255.667,287.333 305,275.167 308.167,284.833 257.333,298 	
		"/>
	<path fill="none" stroke="#000000" stroke-miterlimit="10" d="M325.594,298.196c0,0,7.24,22.471,15.573,67.137"/>
	<path fill="none" stroke="#000000" stroke-miterlimit="10" d="M340.5,368c0,0,2.5-4,9-5.667c0,0,3.334,6-5.833,20.5"/>
	<path fill="none" stroke="#000000" stroke-miterlimit="10" d="M345.296,382.833c0,0,13.642,14.854-8.081,25.133"/>
	<path fill="none" stroke="#000000" stroke-miterlimit="10" d="M249.5,318.167c0,0-2,7.667-1.833,44.167"/>
	<path fill="none" stroke="#000000" stroke-miterlimit="10" d="M246.167,364.517c0,0-6.5-3.516-10-2.183c0,0-3.5,15.833,8.25,18.167
		c0,0-3.341,15.407,8.326,21.407"/>
	<path fill="none" stroke="#000000" stroke-miterlimit="10" d="M303.171,384.232c0,0,0.829,1.768,6.829,0.768s9-1.167,13.167,2.667
		S339,405,339,405l-8.757,14.554"/>
	<path fill="none" stroke="#000000" stroke-miterlimit="10" d="M324,417.833l3.334-13.667c0,0-8.916-5.333-9.958-4.5
		s2.124,13,2.124,13"/>
	<path fill="none" stroke="#000000" stroke-miterlimit="10" d="M314.197,414.11l6.889-1.444c0,0,1.414,11.167,11.581,30.167"/>
	<path fill="none" stroke="#000000" stroke-miterlimit="10" d="M331.667,444.167c0,0-24.167,8.333-63.667,7.333
		c0,0,7.667-25.666,6.5-32.667h4.6"/>
	<path fill="none" stroke="#000000" stroke-miterlimit="10" d="M283.78,418.833c0,0,20.824-0.834,26.157-3.667"/>
	<path fill="none" stroke="#000000" stroke-miterlimit="10" d="M286.991,385.758c0,0-0.158,2.741-5.491,3.408
		s-22.08,8.167-42.747,21.5"/>
	<path fill="none" stroke="#000000" stroke-miterlimit="10" d="M240.135,417.833c0,0,29.866-11.922,33.532-10.044
		c1.547,1.882,1.333,11.044,1.333,11.044"/>
	<line fill="none" stroke="#000000" stroke-miterlimit="10" x1="283.78" y1="388.673" x2="283.78" y2="422.59"/>
	<path fill="none" stroke="#000000" stroke-miterlimit="10" d="M278.722,389.764c0,0-0.335,27.327,0.665,32.826"/>
	<path fill="none" stroke="#000000" stroke-miterlimit="10" d="M307.325,385.293c0,0,2.675,27.707,2.675,32.541"/>
	<path fill="none" stroke="#000000" stroke-miterlimit="10" d="M311.979,384.69c0,0,2.552,26.81,2.219,33.143"/>
	<path fill="none" stroke="#000000" stroke-miterlimit="10" d="M285.921,387.524c0,0,0.246,12.476,10.996,10.976
		s7.617-13.453,7.617-13.453"/>
	<circle fill="none" stroke="#000000" stroke-miterlimit="10" cx="281.583" cy="425.417" r="3.583"/>
	<circle fill="none" stroke="#000000" stroke-miterlimit="10" cx="311.979" cy="420.945" r="3.583"/>
	<path fill="none" stroke="#000000" stroke-miterlimit="10" d="M322.25,417.869c0,0,10.583,0.132,12.25,7.548
		s-5.041,8.083-5.041,8.083"/>
	<line fill="none" stroke="#000000" stroke-miterlimit="10" x1="319.559" y1="447.263" x2="323.123" y2="466.414"/>
	<path fill="none" stroke="#000000" stroke-miterlimit="10" d="M303.171,449.912c0,0,5.743,12.689,7.41,18.522"/>
	<path fill="none" stroke="#000000" stroke-miterlimit="10" d="M293.158,450.89c0,0-4.965,13.025-5.646,17.525"/>
	<path fill="none" stroke="#000000" stroke-miterlimit="10" d="M277,451.583c0,0-2.154,12.498-1.998,14.831"/>
	<path fill="none" stroke="#000000" stroke-miterlimit="10" d="M308.834,468.333c0,0,10.166,1.001,15.583-2.666V485.5
		c0,0,9.084,7.333,11.917,7l-22.137,2.167l1.365-3.5C315.562,491.167,311.168,472.666,308.834,468.333z"/>
	<path fill="none" stroke="#000000" stroke-miterlimit="10" d="M288.76,468.333c0,0-10.166,1.001-15.583-2.666V485.5
		c0,0-9.084,7.333-11.917,7l22.137,2.167l-1.365-3.5C282.032,491.167,286.426,472.666,288.76,468.333z"/>
	<circle fill="none" stroke="#000000" stroke-miterlimit="10" cx="232.117" cy="415.166" r="8.017"/>
	<path fill="none" stroke="#000000" stroke-miterlimit="10" d="M261.728,410.054c0,0,7.449,4.877,13.282,4.044"/>
	<path fill="none" stroke="#000000" stroke-miterlimit="10" d="M319.5,410.938c0,0,5.641-0.848,6.724-1.515"/>
	<path fill="none" stroke="#000000" stroke-miterlimit="10" d="M203.5,355c0,0,20.833,5.001,34.833-10.333
		c0,0-6.833-37.834-11.667-38.667c-1.086,3.279,7.333,32.934,6.5,34.217s-1.803,8.985-23.97,9.855
		c-7.167-1.962-7.53-36.572-13.197-35.239C194,315.167,203.5,355,203.5,355z"/>
	<path fill="none" stroke="#000000" stroke-miterlimit="10" d="M224.1,346.963c0,0-10.266-37.796-12.933-37.129s7,38.833,7,38.833"
		/>
	<polyline fill="none" stroke="#000000" stroke-miterlimit="10" points="225.97,353.165 228.5,364.517 218.5,366.667 
		216.005,355.547 	"/>
	<line fill="none" stroke="#000000" stroke-miterlimit="10" x1="225.977" y1="365.059" x2="233.333" y2="407.149"/>
	<line fill="none" stroke="#000000" stroke-miterlimit="10" x1="220" y1="366.667" x2="227.333" y2="407.789"/>
	<path fill="none" stroke="#000000" stroke-miterlimit="10" d="M235.679,422.344l11.978,68.323c0,0-3.488,2.501-5.989,1.167
		l-11.334-68.65"/>
	<path fill="none" stroke="#010202" stroke-miterlimit="10" d="M277,375.229c0,0,9.88-8.812,18.44-2.646"/>
	<path fill="none" stroke="#010202" stroke-miterlimit="10" d="M311.979,370.595c0,0-9.645-6.56-20.124,0.239"/>
	<path fill="none" stroke="#010202" stroke-miterlimit="10" d="M268.475,368.537c0,0,21.338,0.537,48.682-7.75"/>
</g>
</svg>
