<?xml version="1.0" encoding="utf-8"?>
<!-- Generator: Adobe Illustrator 15.1.0, SVG Export Plug-In . SVG Version: 6.00 Build 0)  -->
<!DOCTYPE svg PUBLIC "-//W3C//DTD SVG 1.1//EN" "http://www.w3.org/Graphics/SVG/1.1/DTD/svg11.dtd">
<svg version="1.1" id="Calque_2" xmlns="http://www.w3.org/2000/svg" xmlns:xlink="http://www.w3.org/1999/xlink" x="0px" y="0px"
	 width="595.28px" height="841.89px" viewBox="0 0 595.28 841.89" enable-background="new 0 0 595.28 841.89" xml:space="preserve">
<path fill="none" stroke="#000000" stroke-miterlimit="10" d="M326.834,343c0,0,4.834,13.667,0,21.167S309.833,384.5,296.5,385.833
	S260.167,382,254.833,365.5c-2.5-8.667-1-10.333-1-10.333"/>
<path fill="none" stroke="#000000" stroke-miterlimit="10" d="M266.333,365.5c0,0,50.834-8,51-7.667s0.833,16.333-21,19.833
	S266.333,365.5,266.333,365.5z"/>
<circle fill="none" stroke="#000000" stroke-miterlimit="10" cx="268" cy="351.833" r="3.166"/>
<circle fill="none" stroke="#000000" stroke-miterlimit="10" cx="316.392" cy="346.963" r="3.166"/>
<path fill="none" stroke="#000000" stroke-miterlimit="10" d="M249.5,360.167c0,0,10.667-10.5,8.5-22.833c0,0,25,12.5,44.667-21.667
	"/>
<path fill="none" stroke="#000000" stroke-miterlimit="10" d="M302.667,312.667c0,0-0.833,22.5,28.667,22.833"/>
<path fill="none" stroke="#000000" stroke-miterlimit="10" d="M332.667,345.667c0,0-9.37-1.799-9.352-10.899"/>
<polyline fill="none" stroke="#000000" stroke-miterlimit="10" points="309.167,284.833 352.667,291.667 234.5,320.167 "/>
<polyline fill="none" stroke="#000000" stroke-miterlimit="10" points="255.667,286.5 253.387,271.5 298.833,261.333 302.667,275 
	"/>
<polyline fill="none" stroke="#000000" stroke-miterlimit="10" points="254.5,288 255.667,297.667 233.167,316.833 "/>
<polyline fill="none" stroke="#000000" stroke-miterlimit="10" points="255.667,287.333 305,275.167 308.167,284.833 257.333,298 
	"/>
<path fill="none" stroke="#000000" stroke-miterlimit="10" d="M325.594,298.196c0,0,7.24,22.471,15.573,67.137"/>
<path fill="none" stroke="#000000" stroke-miterlimit="10" d="M340.5,368c0,0,2.5-4,9-5.667c0,0,3.334,6-5.833,20.5"/>
<path fill="none" stroke="#000000" stroke-miterlimit="10" d="M345.296,382.833c0,0,10.205,14.167-3.462,22.833"/>
<path fill="none" stroke="#000000" stroke-miterlimit="10" d="M249.5,318.167c0,0-2,7.667-1.833,44.167"/>
<path fill="none" stroke="#000000" stroke-miterlimit="10" d="M246.167,364.517c0,0-6.5-3.516-10-2.183c0,0-3.5,15.833,8.25,18.167
	c0,0-4.583,14.167,7.083,20.167"/>
<path fill="none" stroke="#000000" stroke-miterlimit="10" d="M303.171,384.232c0,0,0.829,1.768,6.829,0.768s9-1.167,13.167,2.667
	S339,405,339,405l-7.666,12.833"/>
<path fill="none" stroke="#000000" stroke-miterlimit="10" d="M324.834,416l2.5-11.833c0,0-8.916-5.333-9.958-4.5
	S319.334,412,319.334,412"/>
<path fill="none" stroke="#000000" stroke-miterlimit="10" d="M316.167,413.667l4.919-1c0,0,1.414,11.167,11.581,30.167"/>
<path fill="none" stroke="#000000" stroke-miterlimit="10" d="M331.667,444.167c0,0-24.167,8.333-63.667,7.333
	c0,0,7.667-25.666,6.5-32.667h2.667"/>
<path fill="none" stroke="#000000" stroke-miterlimit="10" d="M285,418.833c0,0,18.501-0.834,23.834-3.667"/>
<path fill="none" stroke="#000000" stroke-miterlimit="10" d="M286.991,385.758c0,0-0.158,2.741-5.491,3.408
	s-19.666,6.5-40.333,19.833"/>
<path fill="none" stroke="#000000" stroke-miterlimit="10" d="M241.167,417c0,0,28.833-11.088,32.5-9.211
	c1.547,1.882,1.333,11.044,1.333,11.044"/>
<line fill="none" stroke="#000000" stroke-miterlimit="10" x1="283.78" y1="388.673" x2="283.78" y2="421.833"/>
<path fill="none" stroke="#000000" stroke-miterlimit="10" d="M278.722,389.764c0,0-0.222,26.57,0.778,32.07"/>
<path fill="none" stroke="#000000" stroke-miterlimit="10" d="M307.325,385.293c0,0,2.675,26.874,2.675,31.707"/>
<path fill="none" stroke="#000000" stroke-miterlimit="10" d="M311.979,384.69c0,0,2.521,25.977,2.188,32.31"/>
<path fill="none" stroke="#000000" stroke-miterlimit="10" d="M285.921,387.524c0,0,0.246,12.476,10.996,10.976
	s7.617-13.453,7.617-13.453"/>
<circle fill="none" stroke="#000000" stroke-miterlimit="10" cx="281.583" cy="425.417" r="3.583"/>
<circle fill="none" stroke="#000000" stroke-miterlimit="10" cx="311.979" cy="420.945" r="3.583"/>
<path fill="none" stroke="#000000" stroke-miterlimit="10" d="M324.417,417.833c0,0,8.416,0.167,10.083,7.583
	s-5.041,8.083-5.041,8.083"/>
<line fill="none" stroke="#000000" stroke-miterlimit="10" x1="319.559" y1="447.263" x2="322.245" y2="463.5"/>
<path fill="none" stroke="#000000" stroke-miterlimit="10" d="M303.171,449.912c0,0,5.162,10.755,6.829,16.588"/>
<path fill="none" stroke="#000000" stroke-miterlimit="10" d="M293.158,450.89c0,0-4.462,11.11-5.144,15.61"/>
<path fill="none" stroke="#000000" stroke-miterlimit="10" d="M277,451.583c0,0-2.146,11.751-1.99,14.084"/>
<path fill="none" stroke="#000000" stroke-miterlimit="10" d="M308.834,468.333c0,0,10.166,1.001,15.583-2.666V485.5
	c0,0,9.084,7.333,11.917,7l-22.137,2.167l1.365-3.5C315.562,491.167,311.168,472.666,308.834,468.333z"/>
<path fill="none" stroke="#000000" stroke-miterlimit="10" d="M288.76,468.333c0,0-10.166,1.001-15.583-2.666V485.5
	c0,0-9.084,7.333-11.917,7l22.137,2.167l-1.365-3.5C282.032,491.167,286.426,472.666,288.76,468.333z"/>
<circle fill="none" stroke="#000000" stroke-miterlimit="10" cx="232.117" cy="415.166" r="8.017"/>
<path fill="none" stroke="#000000" stroke-miterlimit="10" d="M262.167,410.667c0,0,5.833,4.166,11.667,3.333"/>
<path fill="none" stroke="#000000" stroke-miterlimit="10" d="M321.086,410.667c0,0,2.248-0.333,3.331-1"/>
<path fill="none" stroke="#000000" stroke-miterlimit="10" d="M203.5,355c0,0,20.833,5.001,34.833-10.333
	c0,0-6.833-37.834-11.667-38.667c-1.086,3.279,7.333,32.934,6.5,34.217s-1.803,8.985-23.97,9.855
	c-7.167-1.962-7.53-36.572-13.197-35.239C194,315.167,203.5,355,203.5,355z"/>
<path fill="none" stroke="#000000" stroke-miterlimit="10" d="M224.1,346.963c0,0-10.266-37.796-12.933-37.129s7,38.833,7,38.833"/>
<polyline fill="none" stroke="#000000" stroke-miterlimit="10" points="225.97,353.165 228.5,364.517 218.5,366.667 
	216.005,355.547 "/>
<line fill="none" stroke="#000000" stroke-miterlimit="10" x1="225.977" y1="365.059" x2="233.333" y2="407.149"/>
<line fill="none" stroke="#000000" stroke-miterlimit="10" x1="220" y1="366.667" x2="227.333" y2="407.789"/>
<path fill="none" stroke="#000000" stroke-miterlimit="10" d="M235.679,422.344l11.978,68.323c0,0-3.488,2.501-5.989,1.167
	l-11.334-68.65"/>
</svg>
